<svg width="1080" height="177" viewBox="0 0 1080 177" fill="none" xmlns="http://www.w3.org/2000/svg">
<g clip-path="url(#clip0_112_2)">
<path d="M696.273 72H687.727C687.091 68.8182 685.939 65.8788 684.273 63.1818C682.636 60.4545 680.576 58.0758 678.091 56.0455C675.606 54.0152 672.788 52.4394 669.636 51.3182C666.485 50.197 663.076 49.6364 659.409 49.6364C653.53 49.6364 648.167 51.1667 643.318 54.2273C638.5 57.2879 634.636 61.7879 631.727 67.7273C628.848 73.6364 627.409 80.8788 627.409 89.4545C627.409 98.0909 628.848 105.364 631.727 111.273C634.636 117.182 638.5 121.667 643.318 124.727C648.167 127.758 653.53 129.273 659.409 129.273C663.076 129.273 666.485 128.712 669.636 127.591C672.788 126.47 675.606 124.909 678.091 122.909C680.576 120.879 682.636 118.5 684.273 115.773C685.939 113.045 687.091 110.091 687.727 106.909H696.273C695.515 111.182 694.091 115.167 692 118.864C689.939 122.53 687.303 125.742 684.091 128.5C680.909 131.258 677.242 133.409 673.091 134.955C668.939 136.5 664.379 137.273 659.409 137.273C651.591 137.273 644.652 135.318 638.591 131.409C632.53 127.47 627.773 121.924 624.318 114.773C620.894 107.621 619.182 99.1818 619.182 89.4545C619.182 79.7273 620.894 71.2879 624.318 64.1364C627.773 56.9848 632.53 51.4545 638.591 47.5454C644.652 43.6061 651.591 41.6364 659.409 41.6364C664.379 41.6364 668.939 42.4091 673.091 43.9545C677.242 45.4697 680.909 47.6212 684.091 50.4091C687.303 53.1667 689.939 56.3788 692 60.0455C694.091 63.7121 695.515 67.697 696.273 72ZM741.693 137.455C735.663 137.455 730.33 135.924 725.693 132.864C721.087 129.803 717.481 125.576 714.875 120.182C712.269 114.758 710.966 108.5 710.966 101.409C710.966 94.2576 712.269 87.9697 714.875 82.5455C717.481 77.0909 721.087 72.8485 725.693 69.8182C730.33 66.7576 735.663 65.2273 741.693 65.2273C747.723 65.2273 753.042 66.7576 757.648 69.8182C762.254 72.8788 765.86 77.1212 768.466 82.5455C771.102 87.9697 772.42 94.2576 772.42 101.409C772.42 108.5 771.117 114.758 768.511 120.182C765.905 125.576 762.284 129.803 757.648 132.864C753.042 135.924 747.723 137.455 741.693 137.455ZM741.693 130.045C746.542 130.045 750.648 128.742 754.011 126.136C757.375 123.53 759.92 120.061 761.648 115.727C763.405 111.394 764.284 106.621 764.284 101.409C764.284 96.197 763.405 91.4091 761.648 87.0455C759.92 82.6818 757.375 79.1818 754.011 76.5455C750.648 73.9091 746.542 72.5909 741.693 72.5909C736.875 72.5909 732.769 73.9091 729.375 76.5455C726.011 79.1818 723.451 82.6818 721.693 87.0455C719.966 91.4091 719.102 96.197 719.102 101.409C719.102 106.621 719.966 111.394 721.693 115.727C723.451 120.061 726.011 123.53 729.375 126.136C732.739 128.742 736.845 130.045 741.693 130.045ZM815.318 137.455C809.591 137.455 804.576 135.939 800.273 132.909C795.97 129.879 792.606 125.652 790.182 120.227C787.788 114.803 786.591 108.485 786.591 101.273C786.591 94.0909 787.788 87.803 790.182 82.4091C792.606 76.9848 795.985 72.7727 800.318 69.7727C804.652 66.7424 809.697 65.2273 815.455 65.2273C819.697 65.2273 823.227 65.9848 826.045 67.5C828.864 68.9848 831.121 70.8333 832.818 73.0455C834.515 75.2576 835.833 77.4091 836.773 79.5H837.5V42.9091H845.636V136H837.727V123.045H836.773C835.833 125.167 834.5 127.348 832.773 129.591C831.045 131.803 828.758 133.667 825.909 135.182C823.091 136.697 819.561 137.455 815.318 137.455ZM816.273 130.045C820.788 130.045 824.636 128.818 827.818 126.364C831 123.879 833.424 120.47 835.091 116.136C836.788 111.773 837.636 106.773 837.636 101.136C837.636 95.5606 836.803 90.6364 835.136 86.3636C833.47 82.0606 831.045 78.697 827.864 76.2727C824.682 73.8182 820.818 72.5909 816.273 72.5909C811.606 72.5909 807.667 73.8636 804.455 76.4091C801.273 78.9242 798.848 82.3333 797.182 86.6364C795.545 90.9394 794.727 95.7727 794.727 101.136C794.727 106.561 795.561 111.455 797.227 115.818C798.894 120.182 801.318 123.652 804.5 126.227C807.712 128.773 811.636 130.045 816.273 130.045ZM896.909 137.455C890.394 137.455 884.758 135.939 880 132.909C875.242 129.848 871.561 125.621 868.955 120.227C866.379 114.803 865.091 108.561 865.091 101.5C865.091 94.4697 866.379 88.2273 868.955 82.7727C871.561 77.2879 875.152 73 879.727 69.9091C884.333 66.7879 889.652 65.2273 895.682 65.2273C899.47 65.2273 903.121 65.9242 906.636 67.3182C910.152 68.6818 913.303 70.7879 916.091 73.6364C918.909 76.4545 921.136 80.0152 922.773 84.3182C924.409 88.5909 925.227 93.6515 925.227 99.5V103.5H870.682V96.3636H916.955C916.955 91.8788 916.045 87.8485 914.227 84.2727C912.439 80.6667 909.939 77.8182 906.727 75.7273C903.545 73.6364 899.864 72.5909 895.682 72.5909C891.258 72.5909 887.364 73.7727 884 76.1364C880.636 78.5 878 81.6212 876.091 85.5C874.212 89.3788 873.258 93.6212 873.227 98.2273V102.5C873.227 108.045 874.182 112.894 876.091 117.045C878.03 121.167 880.773 124.364 884.318 126.636C887.864 128.909 892.061 130.045 896.909 130.045C900.212 130.045 903.106 129.53 905.591 128.5C908.106 127.47 910.212 126.091 911.909 124.364C913.636 122.606 914.939 120.682 915.818 118.591L923.5 121.091C922.439 124.03 920.697 126.742 918.273 129.227C915.879 131.712 912.879 133.712 909.273 135.227C905.697 136.712 901.576 137.455 896.909 137.455Z" fill="black"/>
<path d="M213.636 42.9091L237.864 116.182H238.818L263 42.9091H281.545L248.727 136H227.909L195.136 42.9091H213.636ZM316.034 137.364C309.216 137.364 303.307 135.864 298.307 132.864C293.307 129.864 289.428 125.667 286.67 120.273C283.943 114.879 282.58 108.576 282.58 101.364C282.58 94.1515 283.943 87.8333 286.67 82.4091C289.428 76.9848 293.307 72.7727 298.307 69.7727C303.307 66.7727 309.216 65.2727 316.034 65.2727C322.852 65.2727 328.761 66.7727 333.761 69.7727C338.761 72.7727 342.625 76.9848 345.352 82.4091C348.11 87.8333 349.489 94.1515 349.489 101.364C349.489 108.576 348.11 114.879 345.352 120.273C342.625 125.667 338.761 129.864 333.761 132.864C328.761 135.864 322.852 137.364 316.034 137.364ZM316.125 124.182C319.822 124.182 322.913 123.167 325.398 121.136C327.883 119.076 329.731 116.318 330.943 112.864C332.186 109.409 332.807 105.561 332.807 101.318C332.807 97.0455 332.186 93.1818 330.943 89.7273C329.731 86.2424 327.883 83.4697 325.398 81.4091C322.913 79.3485 319.822 78.3182 316.125 78.3182C312.337 78.3182 309.186 79.3485 306.67 81.4091C304.186 83.4697 302.322 86.2424 301.08 89.7273C299.867 93.1818 299.261 97.0455 299.261 101.318C299.261 105.561 299.867 109.409 301.08 112.864C302.322 116.318 304.186 119.076 306.67 121.136C309.186 123.167 312.337 124.182 316.125 124.182ZM379.909 42.9091V136H363.455V42.9091H379.909ZM459.193 66.1818L434.33 136H416.148L391.284 66.1818H408.83L424.875 118.045H425.602L441.693 66.1818H459.193ZM499.114 137.364C492.114 137.364 486.068 135.909 480.977 133C475.917 130.061 472.023 125.909 469.295 120.545C466.568 115.152 465.205 108.803 465.205 101.5C465.205 94.3182 466.568 88.0152 469.295 82.5909C472.053 77.1364 475.902 72.8939 480.841 69.8636C485.78 66.803 491.583 65.2727 498.25 65.2727C502.553 65.2727 506.614 65.9697 510.432 67.3636C514.28 68.7273 517.674 70.8485 520.614 73.7273C523.583 76.6061 525.917 80.2727 527.614 84.7273C529.311 89.1515 530.159 94.4242 530.159 100.545V105.591H472.932V94.5H514.386C514.356 91.3485 513.674 88.5455 512.341 86.0909C511.008 83.6061 509.144 81.6515 506.75 80.2273C504.386 78.803 501.629 78.0909 498.477 78.0909C495.114 78.0909 492.159 78.9091 489.614 80.5455C487.068 82.1515 485.083 84.2727 483.659 86.9091C482.265 89.5151 481.553 92.3788 481.523 95.5V105.182C481.523 109.242 482.265 112.727 483.75 115.636C485.235 118.515 487.311 120.727 489.977 122.273C492.644 123.788 495.765 124.545 499.341 124.545C501.735 124.545 503.902 124.212 505.841 123.545C507.78 122.848 509.462 121.833 510.886 120.5C512.311 119.167 513.386 117.515 514.114 115.545L529.477 117.273C528.508 121.333 526.659 124.879 523.932 127.909C521.235 130.909 517.78 133.242 513.568 134.909C509.356 136.545 504.538 137.364 499.114 137.364ZM578.943 66.1818V78.9091H538.807V66.1818H578.943ZM548.716 49.4545H565.17V115C565.17 117.212 565.504 118.909 566.17 120.091C566.867 121.242 567.777 122.03 568.898 122.455C570.019 122.879 571.261 123.091 572.625 123.091C573.655 123.091 574.595 123.015 575.443 122.864C576.322 122.712 576.989 122.576 577.443 122.455L580.216 135.318C579.337 135.621 578.08 135.955 576.443 136.318C574.837 136.682 572.867 136.894 570.534 136.955C566.413 137.076 562.701 136.455 559.398 135.091C556.095 133.697 553.473 131.545 551.534 128.636C549.625 125.727 548.686 122.091 548.716 117.727V49.4545Z" fill="black"/>
</g>
<defs>
<clipPath id="clip0_112_2">
<rect width="1080" height="177" fill="white"/>
</clipPath>
</defs>
</svg>
